<?xml version="1.0" encoding="UTF-8"?> <svg xmlns="http://www.w3.org/2000/svg" width="19.441" height="13.365" viewBox="0 0 19.441 13.365"><g id="email" transform="translate(0 -80)"><g id="Group_546" data-name="Group 546" transform="translate(12.887 82.464)"><g id="Group_545" data-name="Group 545"><path id="Path_820" data-name="Path 820" d="M339.392,149.214l6.554,4.143V144.9Z" transform="translate(-339.392 -144.896)" fill="#ff8667"></path></g></g><g id="Group_548" data-name="Group 548" transform="translate(0 82.464)"><g id="Group_547" data-name="Group 547"><path id="Path_821" data-name="Path 821" d="M0,144.9v8.461l6.554-4.143Z" transform="translate(0 -144.896)" fill="#ff8667"></path></g></g><g id="Group_550" data-name="Group 550" transform="translate(0.036 80)"><g id="Group_549" data-name="Group 549" transform="translate(0 0)"><path id="Path_822" data-name="Path 822" d="M19.149,80H2.139A1.2,1.2,0,0,0,.96,81.034l9.684,6.38,9.684-6.38A1.2,1.2,0,0,0,19.149,80Z" transform="translate(-0.96 -80)" fill="#ff8667"></path></g></g><g id="Group_552" data-name="Group 552" transform="translate(0.039 87.515)"><g id="Group_551" data-name="Group 551" transform="translate(0 0)"><path id="Path_823" data-name="Path 823" d="M12.759,277.921l-1.719,1.132a.61.61,0,0,1-.668,0L8.652,277.92l-7.628,4.825A1.2,1.2,0,0,0,2.2,283.77h17.01a1.2,1.2,0,0,0,1.176-1.025Z" transform="translate(-1.024 -277.92)" fill="#ff8667"></path></g></g></g></svg> 