<?xml version="1.0" encoding="UTF-8"?> <svg xmlns="http://www.w3.org/2000/svg" width="50" height="50" viewBox="0 0 50 50"><g id="FB" transform="translate(-897 -1470)"><circle id="Ellipse_42" data-name="Ellipse 42" cx="25" cy="25" r="25" transform="translate(897 1470)" fill="#ff8667"></circle><path id="Icon_simple-facebook" data-name="Icon simple-facebook" d="M24,12A12,12,0,1,0,10.125,23.854V15.469H7.078V12h3.047V9.356c0-3.008,1.792-4.669,4.533-4.669a18.455,18.455,0,0,1,2.686.234V7.875H15.831a1.734,1.734,0,0,0-1.956,1.874V12H17.2l-.532,3.469h-2.8v8.385A12,12,0,0,0,24,12Z" transform="translate(910 1483.111)" fill="#fff8f8"></path></g></svg> 