<?xml version="1.0" encoding="UTF-8"?> <svg xmlns="http://www.w3.org/2000/svg" viewBox="0 0 229.38 73.9"><defs><style>.cls-1,.cls-2{fill:#434e3f;}.cls-1{stroke:#434e3f;stroke-width:1.33px;}</style></defs><g id="Layer_2" data-name="Layer 2"><g id="Layer_1-2" data-name="Layer 1"><g id="Group_632" data-name="Group 632"><g id="g48"><path id="path50" class="cls-1" d="M16.17,29l.06,0c.15-.19.31-.39.46-.6C17,28,18.12,26.39,18.34,26a22.33,22.33,0,0,0,1.89-3.79c.15-.38.3-.76.44-1.14a16.57,16.57,0,0,1,.9-2.13,6.7,6.7,0,0,1,2-2.61A6.53,6.53,0,0,1,27,15.43,9.83,9.83,0,0,1,29.5,16l.32.11c.34.11.77.26,1.29.39a3.15,3.15,0,0,0,2.44,0l.37-.14A5.87,5.87,0,0,0,35.73,15,6.86,6.86,0,0,1,37,14a4.28,4.28,0,0,0,.42-.26,3,3,0,0,1,.42-.27l.42-.2a7.39,7.39,0,0,1,4.36-1,16.78,16.78,0,0,1,2.42.6l.05,0,.74.22a21.28,21.28,0,0,1,3.09,1.16c.94.42,2.77,1.43,3,1.54A21.17,21.17,0,0,1,55,18.19a22,22,0,0,1,2.68,2.86,24.4,24.4,0,0,1,2.2,3.25,26.91,26.91,0,0,1,1.65,3.58,29.31,29.31,0,0,1,1.06,3.8,29.76,29.76,0,0,1,.54,3.77,25.53,25.53,0,0,1-.1,3.81,26.07,26.07,0,0,1-.71,3.81,24.27,24.27,0,0,1-1.09,3.55,21.31,21.31,0,0,1-1.51,2.73l0,0-.33.54A36,36,0,0,1,57,53.18a23,23,0,0,1-2.84,2.65,25.76,25.76,0,0,1-3.28,2.11,24.29,24.29,0,0,1-3.2,1.34l-.4.14a29.51,29.51,0,0,1-3.91,1.11l-.64.13h0a18.79,18.79,0,0,1-2.88.47,24.23,24.23,0,0,1-3.81,0,23.73,23.73,0,0,1-3.63-.7l-.09,0a24.47,24.47,0,0,1-3.57-1.18,25.69,25.69,0,0,1-3.31-1.78,23.54,23.54,0,0,1-3.1-2.34,24.91,24.91,0,0,1-2.61-2.82,23.27,23.27,0,0,1-2.1-3,30,30,0,0,1-1.77-3.6,21.35,21.35,0,0,1-.83-3L14.81,42a28.84,28.84,0,0,1-.64-3.79,26.05,26.05,0,0,1-.07-3.85,8.11,8.11,0,0,1,1.35-4.21c.23-.35.49-.68.77-1Zm14.35-13.5c-1.47-.57-5.37-2.07-7.93-.15-1.48,1.11-2.15,3.39-2.64,5-.17.55-.31,1-.46,1.39l0,.11-.24.58v0a19.64,19.64,0,0,1-1.47,3.11c-.11.16-.21.32-.3.47a8.08,8.08,0,0,1-.67,1l-.35.38a23.35,23.35,0,0,0-2.71,3.28q-.12.26-.27.51a5.37,5.37,0,0,0-.82,2.55,10.52,10.52,0,0,0,.28,2.37,17.49,17.49,0,0,1,.32,2,19.81,19.81,0,0,0,.58,3.13c.07.27.13.55.19.81l.1.42A25.46,25.46,0,0,0,15,46a20.84,20.84,0,0,0,1.43,2.78v0l.41.71A25.86,25.86,0,0,0,19,52.82a25.54,25.54,0,0,0,2.71,2.89l.07.06,0,0c.65.59,1.28,1.16,2,1.69a15.92,15.92,0,0,0,3.84,2.44,15.72,15.72,0,0,0,4.59,1.34c.49.08,1,.15,1.66.3h0a13.65,13.65,0,0,0,2,.36,25.78,25.78,0,0,0,3.93,0,26.4,26.4,0,0,0,3.32-.54l.54-.12a29.73,29.73,0,0,0,3.85-1.1l.51-.19.12,0a21.44,21.44,0,0,0,3.09-1.29,26.06,26.06,0,0,0,3.35-2.24,24.59,24.59,0,0,0,2.94-2.74c.9-1,2.46-3.12,2.57-3.28l0,0h0a28.57,28.57,0,0,0,1.77-3.49,24.37,24.37,0,0,0,1.27-3.69,7.46,7.46,0,0,1,.23-.73,9.88,9.88,0,0,0,.35-1.21A9.1,9.1,0,0,0,63.89,40c0-.2,0-.4,0-.62a27.2,27.2,0,0,0,0-3.83,31.75,31.75,0,0,0-.58-4c-.14-.65-.3-1.35-.49-2.07s-.36-1.26-.58-1.87a28.09,28.09,0,0,0-1.74-3.68,24.79,24.79,0,0,0-2.24-3.23l-.07-.1a24.39,24.39,0,0,0-2.76-3,22.9,22.9,0,0,0-2.57-1.92h0l-.59-.4-.25-.18a17.63,17.63,0,0,0-2.69-1.65l-.1,0c-.44-.2-.84-.4-1.22-.59A10.58,10.58,0,0,0,46.18,12l-.34-.11-.61-.17a14,14,0,0,0-2.3-.55,8.5,8.5,0,0,0-5.09.68,8.65,8.65,0,0,0-2.64,2.25,6.26,6.26,0,0,1-1.07,1.05,3.87,3.87,0,0,1-3,.6,4,4,0,0,1-.58-.2"></path></g><g id="g56"><path id="path58" class="cls-1" d="M29,19.53a20,20,0,0,1,2.79.13,13,13,0,0,0,3.69.09,9.46,9.46,0,0,0,2.72-1.25l.39-.21A7.41,7.41,0,0,1,42.09,17a6.48,6.48,0,0,1,2.95.8A18.26,18.26,0,0,1,47,19.19c.27.19.72.8,1,1l.46.28.36.23A20.56,20.56,0,0,1,51.66,23l0,0a19.92,19.92,0,0,1,2.43,2.76,19.77,19.77,0,0,1,1.61,3.18l.07.15A20.44,20.44,0,0,1,57,32.61a20.61,20.61,0,0,1,.35,7.4,19.36,19.36,0,0,1-1,3.59A19.2,19.2,0,0,1,54.66,47a19.45,19.45,0,0,1-2.33,2.88,20.51,20.51,0,0,1-2.84,2.42A20.11,20.11,0,0,1,46.19,54a19.45,19.45,0,0,1-3.5,1.09,20.59,20.59,0,0,1-3.75.41,19.89,19.89,0,0,1-3.7-.23,19.13,19.13,0,0,1-3.59-.93,18.73,18.73,0,0,1-3.35-1.6,17.34,17.34,0,0,1-2.81-2.16,18.53,18.53,0,0,1-2.23-2.77,18.5,18.5,0,0,1-1.84-3,20,20,0,0,1-1.18-3.36,18.46,18.46,0,0,1-.43-3.22l0-.3a20.81,20.81,0,0,1,0-3.53,11.05,11.05,0,0,1,1.74-4.94c.2-.37.41-.79.63-1.24l.42-.85a24.34,24.34,0,0,0,1-2.25c.07-.2.15-.39.22-.59a16.92,16.92,0,0,1,1.35-3,5,5,0,0,1,1.28-1.39A4.69,4.69,0,0,1,29,19.53m-5,2.17-.08.16c-.46.88-1.8,4.88-2,5.22-.26.5-.4.65-.63,1.05-.13.24-.47.67-.59.89-1.09,2-1.67,2-2,3.69a16.74,16.74,0,0,0,.06,5.65c.26,1.2.38,2.09.69,3.29a21.47,21.47,0,0,0,1.23,3.48,20.78,20.78,0,0,0,1.85,3.2A18.84,18.84,0,0,0,25,51.1l.7.67A1,1,0,0,0,26,52l.12.09a14.22,14.22,0,0,0,1.75,1.34l.09,0a14.76,14.76,0,0,0,2.14,1.25,11.94,11.94,0,0,0,3.71,1c.4.1.81.18,1.21.25h.06l.12,0h0a19.06,19.06,0,0,0,3.61.37,21.84,21.84,0,0,0,3.78-.57,11.84,11.84,0,0,0,3.7-1.24l.23-.1a19.23,19.23,0,0,0,3.27-1.64,20.6,20.6,0,0,0,3-2.47,16.66,16.66,0,0,0,1.93-2.5l.42-.62h0A19.84,19.84,0,0,0,57,43.91a20.39,20.39,0,0,0,1.18-3.67,17.41,17.41,0,0,0,.09-3.82,21.85,21.85,0,0,0-1.71-7.51,20.62,20.62,0,0,0-1.81-3.37,22,22,0,0,0-2.54-3.08,17.89,17.89,0,0,0-2.76-2.31l-.56-.44c-.37-.2-2.43-2.13-3.18-2.51A9.22,9.22,0,0,0,41.9,16c-1.93.09-2.54.89-3.64,1.48l-.13.07a11,11,0,0,1-2.87,1.57A8.29,8.29,0,0,1,31.82,19a22.27,22.27,0,0,0-3-.44,5.56,5.56,0,0,0-3,.62,6.42,6.42,0,0,0-1.76,2.48"></path></g><g id="g64"><path id="path66" class="cls-1" d="M33.23,23.32h.09c.58,0,1.38-.12,2.09-.23a15.24,15.24,0,0,0,3.18-.92c.86-.36,1.4-.65,2-.45.79.24,1.27.93,2.09,1.64.16.13.54.41.71.56A21.5,21.5,0,0,0,46,25.76l.19.12a9.82,9.82,0,0,1,2.41,1.6,13.54,13.54,0,0,1,2,3,14.1,14.1,0,0,1,1.08,3.35A13.67,13.67,0,0,1,52,37.28a16,16,0,0,1-.69,3.81,12.33,12.33,0,0,1-1.47,3.06,11.53,11.53,0,0,1-2.1,2.51,13.23,13.23,0,0,1-2.9,2,13.23,13.23,0,0,1-10.27.78l-.3-.09a15.33,15.33,0,0,1-2.47-.94,15.85,15.85,0,0,1-1.44-1,17,17,0,0,1-1.73-1.66,13.34,13.34,0,0,1-2-2.89,13.74,13.74,0,0,1-1.32-3.28,13.35,13.35,0,0,1-.2-3.51,13.86,13.86,0,0,1,.59-3.5,13.53,13.53,0,0,1,1.6-3.12,6.46,6.46,0,0,0,.64-1.59c.08-.27.16-.54.26-.8a10.72,10.72,0,0,1,1-2.07,2.92,2.92,0,0,1,1-.89,6.39,6.39,0,0,1,3.08-.82m-3.8,0c-1.44,1-1.29,1.89-1.88,3.46-.1.25-.22.77-.29,1a5.28,5.28,0,0,1-.61,1.32,16.35,16.35,0,0,0-2.08,3.38A11.78,11.78,0,0,0,24.22,36a15,15,0,0,0,.4,3.78A13.93,13.93,0,0,0,26,43l.26.49A12.57,12.57,0,0,0,28,46.34a10.48,10.48,0,0,0,.9.86,10.46,10.46,0,0,0,3.71,2.49,14,14,0,0,0,3.87,1h0a12.7,12.7,0,0,0,1.51.18,14.59,14.59,0,0,0,3.61-.33,14.59,14.59,0,0,0,3.53-1.15,14.55,14.55,0,0,0,2.93-2.25l0,0a14.31,14.31,0,0,0,2.43-2.83,23.81,23.81,0,0,0,1.61-3.14,11.21,11.21,0,0,0,.63-4.37,16.56,16.56,0,0,0-.32-3.14,13.9,13.9,0,0,0-1.27-3.49A14.14,14.14,0,0,0,49,27.07a14,14,0,0,0-3-2.21,19.57,19.57,0,0,1-2.75-2.23l-.17-.15a7.07,7.07,0,0,0-2.36-1.57,3.37,3.37,0,0,0-2.55.44,6.71,6.71,0,0,1-3,1.22c-.93.15-4-.43-5.78.75"></path></g><g id="g72"><path id="path74" class="cls-1" d="M38.77,28.17a14.64,14.64,0,0,1,4,1.92,8.15,8.15,0,0,1,2.68,3A8,8,0,0,1,46.27,37a7.68,7.68,0,0,1-1.21,3.8,8.33,8.33,0,0,1-2.88,2.81,7.9,7.9,0,0,1-7.85-.48,7.21,7.21,0,0,1-2.71-2.77A8.07,8.07,0,0,1,31,36.5a17.29,17.29,0,0,1,.62-3.42c.08-.29.15-.59.22-.88a8.51,8.51,0,0,1,.86-2.45,3.83,3.83,0,0,1,1.76-1.54,7.72,7.72,0,0,1,4.34-.05m-7,1.53a20.47,20.47,0,0,0-.8,3c-.05.18-.1.37-.14.55a19.75,19.75,0,0,0-.6,3.23,8.82,8.82,0,0,0,.84,4.2,7.54,7.54,0,0,0,1.32,1.84h0l0,0a7.68,7.68,0,0,0,.85.77A7.51,7.51,0,0,0,35.2,44.5a6.63,6.63,0,0,0,1,.29,7.43,7.43,0,0,0,1.74.33H38l.19,0a8.89,8.89,0,0,0,4.3-.94,9,9,0,0,0,3.18-3h0a9.31,9.31,0,0,0,1.26-2.89,10.71,10.71,0,0,0,.1-1.7,7.66,7.66,0,0,0-1-3.83A9.9,9.9,0,0,0,43.4,29.7l-.28-.2c-1.66-1-2.65-1.85-3.89-2.16a11,11,0,0,0-5.41-.05c-.85.29-1.43,1-2,2.4"></path></g><path id="path82" class="cls-1" d="M28.18,6.93a8.52,8.52,0,0,0,3.73-2.45,7.56,7.56,0,0,1,3.76-2.67,5,5,0,0,1,3,.19l.48.19.55.23a5.8,5.8,0,0,0,2.15.63,6.6,6.6,0,0,0,3-.54l.3-.11a5,5,0,0,1,2.49-.3,3.76,3.76,0,0,1,1.17.35l.65.26a1.78,1.78,0,0,1,.29.12,2.87,2.87,0,0,0,.37.15,36.69,36.69,0,0,1,4.34,1.8c.45.21.84.39,1.23.55a15.19,15.19,0,0,1,2.09,1.06,24,24,0,0,1,2.31,1.82c.28.24.56.48.84.7l.64.52.07.06a25,25,0,0,1,2.26,2,35.31,35.31,0,0,1,2.54,2.93c.14.19.28.37.43.55a29.06,29.06,0,0,1,1.9,2.65,35.4,35.4,0,0,1,1.79,3.53l.4.84a25.41,25.41,0,0,1,1.19,2.79c.36,1.08.7,2.3,1.06,3.82.22,1,.35,2,.49,3l.07.52c.16,1.2.23,2.4.28,3.52A13.83,13.83,0,0,1,74,37.84c0,.43-.09.83-.11,1.23s0,.82,0,1.23a18.84,18.84,0,0,1-.14,2.37,28.44,28.44,0,0,1-.66,2.92l0,.22a1.74,1.74,0,0,0,0,.39c0,.12,0,.24,0,.36-.09.36-.16.69-.23,1a13.28,13.28,0,0,1-.52,2,27.18,27.18,0,0,1-1.27,2.81l-.2.41A31,31,0,0,1,69,55.85s-1.55,2.41-2.38,3.42a33.7,33.7,0,0,1-2.7,2.91,35.32,35.32,0,0,1-3,2.63,19.42,19.42,0,0,1-2.37,1.51l-1,.58-.4.24a29.29,29.29,0,0,1-3,1.7,23.31,23.31,0,0,1-2.69,1l-1.05.35a38.84,38.84,0,0,1-3.79,1.1c-1.07.24-2.21.44-3.5.62l-.89.13c-.87.12-1.77.26-2.65.3-1.43.06-2.53.07-3.57,0-1.29-.07-2.57-.24-3.54-.38a34.88,34.88,0,0,1-6.88-1.79l-.92-.33a20.85,20.85,0,0,1-2.41-1,16.3,16.3,0,0,1-2-1.27l-1-.66c-.37-.24-.76-.47-1.15-.71a18,18,0,0,1-2.16-1.44,24.93,24.93,0,0,1-2.15-2.09L13.14,62a33.24,33.24,0,0,1-2.55-3,32.48,32.48,0,0,1-2.27-3.2,29.44,29.44,0,0,1-1.46-2.92l-.28-.61-.24-.52A31.45,31.45,0,0,1,5,48.64c-.11-.33-.21-.66-.3-1-.16-.59-.29-1.2-.43-1.82v0c-.07-.32-.14-.64-.22-1s-.16-.66-.24-1A27.38,27.38,0,0,1,3.23,41a20.86,20.86,0,0,0-.65-2.92,10.68,10.68,0,0,1-.4-5.54c.31-1,1.33-1.64,3-2.73l0,0c.31-.21.65-.41,1-.61a15.54,15.54,0,0,0,2.34-1.59A8.19,8.19,0,0,0,11,24.32a10.53,10.53,0,0,0,.6-3.15c0-.91.08-2,.08-3.16,0-.49,0-1,0-1.48a20.93,20.93,0,0,1,0-2.24,15,15,0,0,1,.63-3.64,5.91,5.91,0,0,1,2-3,6,6,0,0,1,3.54-1,22,22,0,0,1,3.8.27,30.05,30.05,0,0,0,3.28.3,9,9,0,0,0,3.3-.32m-15.85.42c-1,1.26-2.15,4.07-1.58,10.35,0,.16,0,.27,0,.31,0,.39,0,.77,0,1.18,0,.62,0,1.24,0,1.85a10.17,10.17,0,0,1-.73,3A7.2,7.2,0,0,1,8,27a10.76,10.76,0,0,1-2,1.26c-.42.23-.86.46-1.26.72a24.84,24.84,0,0,0-2.52,1.78A3.63,3.63,0,0,0,.76,33.14c-.34,1.48.32,3.37.91,5a11.92,11.92,0,0,1,.78,2.88,12.57,12.57,0,0,0,.43,2.36c.06.25.13.51.18.76l.09.39c.1.43.18.88.26,1.33v0a18.31,18.31,0,0,0,.51,2.31c.31,1,.71,1.93,1.1,2.85l.2.48c.46,1.1.92,2.06,1.48,3.11l0,.05c.53,1,1.1,2,1.72,3a36.43,36.43,0,0,0,2.22,3,33.74,33.74,0,0,0,2.45,2.62c.93.91,2.66,2.45,2.8,2.54l.52.43a25.61,25.61,0,0,0,6.16,3.91,25.23,25.23,0,0,0,2.53.88l.78.25a31.7,31.7,0,0,0,4.4,1.07,20.17,20.17,0,0,0,2,.43c1.23.18,2.56.31,3.74.37s2.34.09,3.55,0c1,0,2-.19,3-.33l.69-.1c1.32-.17,2.45-.37,3.55-.62s2.34-.55,3.43-.91,2.4-.78,3.48-1.25,2.06-1,3.05-1.51A27.2,27.2,0,0,0,59.18,67l0,0,.54-.38c.35-.24.74-.48,1.12-.71a14.6,14.6,0,0,0,1.91-1.3,25.24,25.24,0,0,0,2-1.91l.05-.05.53-.55c.73-.76,1.43-1.57,2.28-2.63a13,13,0,0,0,1-1.37c.13-.19.25-.39.37-.58l0-.06c.19-.31.39-.63.6-.94,0-.06,1.34-2.25,1.88-3.33.12-.25.24-.49.37-.74v0A23.72,23.72,0,0,0,73,49.84a34.75,34.75,0,0,0,1-3.48c.1-.42.23-.83.36-1.22A13.38,13.38,0,0,0,74.92,43a9.31,9.31,0,0,0,0-1.75c0-.34,0-.65,0-.94s0-.36,0-.53a3.62,3.62,0,0,1,0-.57c0-.36,0-.72.06-1.1A21.22,21.22,0,0,0,75,35.57C75,34.29,74.82,33,74.68,32s-.33-2.27-.61-3.56c-.15-.64-.29-1.21-.44-1.74s-.32-1.17-.49-1.69c-.06-.17-.11-.34-.17-.51l0-.07c-.28-.88-.55-1.71-.93-2.6a22.42,22.42,0,0,0-1.22-2.33v0l-.5-.88a35.33,35.33,0,0,0-1.9-3.05l-.28-.4c-.56-.85-1.16-1.68-1.8-2.47a30.28,30.28,0,0,0-2.16-2.23l-.31-.3C63,9.28,62,8.5,61.15,7.82c-.2-.16-.4-.32-.59-.49l-.06,0a24.39,24.39,0,0,0-2.15-1.64s-2.36-1.38-3.59-2-4.63-2.13-4.87-2.22A8.33,8.33,0,0,0,47.75,1a5.19,5.19,0,0,0-2.61.41l-.34.13a4.45,4.45,0,0,0-.54.25A4.17,4.17,0,0,1,42,2.32a4.9,4.9,0,0,1-2-.66,6.91,6.91,0,0,0-.78-.36L39,1.2A6.52,6.52,0,0,0,35.71.71c-2,.31-3.43,1.9-4.57,3.37a6,6,0,0,1-3.08,2.07,10,10,0,0,1-3.31.32,19.21,19.21,0,0,1-2.39-.27c-.2,0-1.2-.25-1.2-.25-.26-.06-6.37-1.58-8.83,1.4"></path><g id="g88"><path id="path90" class="cls-1" d="M26.59,11.19a9.46,9.46,0,0,0,3.74-.28,10.86,10.86,0,0,0,3.53-2.08,6.89,6.89,0,0,1,3.73-1.94,16.33,16.33,0,0,1,3.56-.18,33.7,33.7,0,0,1,3.73.49l.79.14a19,19,0,0,1,2.67.59,10.66,10.66,0,0,1,1.85.85l.89.45h0l.58.28c1.08.5,3.11,1.6,3.19,1.64a28,28,0,0,1,3.27,2.46l.06.05A25.44,25.44,0,0,1,61,16.3a29.23,29.23,0,0,1,2.42,3.23,31.85,31.85,0,0,1,1.94,3.53l.21.44a28.16,28.16,0,0,1,1.38,3.19,22.59,22.59,0,0,1,.69,2.81c.07.37.14.73.22,1.1a35.12,35.12,0,0,1,.62,3.83,31.23,31.23,0,0,1,.15,3.87,29.4,29.4,0,0,1-.31,3.87A28.89,28.89,0,0,1,67.37,46a19,19,0,0,1-1.16,2.8c-.14.29-.27.56-.39.83C65.3,50.72,64,53.05,64,53.12l-.5.81,0,0a18.23,18.23,0,0,1-1.7,2.46,23,23,0,0,1-2.44,2.29l-.48.42a29.59,29.59,0,0,1-3.23,2.31,30,30,0,0,1-3.42,2,32.74,32.74,0,0,1-3.7,1.47,32.28,32.28,0,0,1-3.77,1,36.18,36.18,0,0,1-3.87.6l-.6,0h-.1a24.68,24.68,0,0,1-3.21.18,18.25,18.25,0,0,1-2.84-.37l-.93-.16a31.47,31.47,0,0,1-3.84-.9l-.47-.14a26.76,26.76,0,0,1-3.19-1.12,35,35,0,0,1-3.41-1.86,25.66,25.66,0,0,1-2.87-2.09A22.13,22.13,0,0,1,17.27,58l-.46-.51a30.76,30.76,0,0,1-2.36-2.85,27,27,0,0,1-1.89-3.08l-.22-.4a28,28,0,0,1-1.4-2.86,36,36,0,0,1-1.22-3.68v0A29.78,29.78,0,0,1,9,40.94c-.12-.72-.28-1.44-.47-2.15l-.1-.41A18.23,18.23,0,0,1,8,35.73l0-.3c0-.12,0-.24-.05-.37l0-.27A4.3,4.3,0,0,1,8,32.43a20.68,20.68,0,0,1,3.37-3.74l.48-.41A10.91,10.91,0,0,0,14.49,25,22.35,22.35,0,0,0,16,20.09L16,20c.34-1.43.72-2.82,1.09-4a8.46,8.46,0,0,1,1.78-3.59,5.86,5.86,0,0,1,3.06-1.2,23,23,0,0,1,3.42-.05c.41,0,.83.05,1.24.08m-11,6.68h0s-.27,1.36-.4,1.92l-.15.62c-.12.53-.23,1.07-.34,1.6A10.63,10.63,0,0,1,14,24.78,10.63,10.63,0,0,1,11.19,28l-.49.42c-.29.25-.64.51-1,.79a9,9,0,0,0-3.11,3.25c-.57,1.4.21,4.08.63,5.53l.2.7c0,.24.12.5.2.77.18.69.39,1.48.47,2a21.41,21.41,0,0,0,.61,2.75l.12.41,0,.18h0A32.28,32.28,0,0,0,10,48.43a31.12,31.12,0,0,0,1.55,3.18l.13.24a31.44,31.44,0,0,0,2,3.21,29.06,29.06,0,0,0,5.09,5.61l.71.62a20.32,20.32,0,0,0,2.26,1.78l.16.09.1.06A20.5,20.5,0,0,0,25.15,65a22.12,22.12,0,0,0,6.21,1.85c.59.11,1.21.22,1.85.36,0,0,2.39.29,3.74.33a31.1,31.1,0,0,0,4-.18,35.09,35.09,0,0,0,4-.56,25.06,25.06,0,0,0,2.65-.78l.7-.22c.37-.13.76-.23,1.14-.34a16.54,16.54,0,0,0,2.19-.73,30.8,30.8,0,0,0,3.15-1.57,31.9,31.9,0,0,0,2.93-2l.41-.3.08-.06a23,23,0,0,0,2.26-1.78,31.78,31.78,0,0,0,2.46-2.6,23.64,23.64,0,0,0,1.36-2,38.11,38.11,0,0,0,2.56-4.59,33.52,33.52,0,0,0,1.4-3.73c.14-.46.29-.9.43-1.33a18.45,18.45,0,0,0,.74-2.64A25.71,25.71,0,0,0,69.58,39v-.62a17.25,17.25,0,0,0-.17-2.59c0-.36-.09-.74-.12-1.12l0-.26a36.13,36.13,0,0,0-.51-3.88c-.15-.69-.31-1.35-.48-2s-.29-1-.44-1.51c-.35-1.12-.75-2.23-1.21-3.31a32.11,32.11,0,0,0-3.54-6.11,24.89,24.89,0,0,0-2-2.32l-.31-.33a26.56,26.56,0,0,0-2.58-2.4,27.19,27.19,0,0,0-2.88-2A29,29,0,0,0,52,8.7c-.09,0-.37-.2-.73-.41a22.36,22.36,0,0,0-2.83-1.48c-.24-.08-.46-.15-.66-.23a10,10,0,0,0-1.6-.44l-.36,0L45.1,6a18.47,18.47,0,0,0-2.35-.09c-.58,0-1.13,0-1.55,0a11.83,11.83,0,0,1-1.26-.14c-.42-.06-.84-.12-1.35-.15a6.34,6.34,0,0,0-1.23.06,6.55,6.55,0,0,0-3.58,2l-.55.49a9.28,9.28,0,0,1-3.1,2,10.14,10.14,0,0,1-3.72.21l-1-.06H25c-.05,0-4.93-1-7,.57-1.55,1.12-1.91,3.88-2.15,5.7-.07.54-.13,1-.21,1.33"></path></g></g><g id="re_bloom-14-05" data-name="re bloom-14-05"><path id="Path_25" data-name="Path 25" class="cls-2" d="M99.3,6.91a11.07,11.07,0,0,1,4.88,1,8.42,8.42,0,0,1,3.16,2.48,7.5,7.5,0,0,1,1.44,3.35,7.59,7.59,0,0,1-2.32,6.74,8.76,8.76,0,0,1-3.72,2.06l5.39,11.54H106.7l-5.27-11.23c-.33.05-.68.08-1,.11s-.73,0-1.08,0H90.7V34.05H86.93V6.91Zm-.15,14.71a5.51,5.51,0,0,0,3.34-1,6,6,0,0,0,2-2.48,8.12,8.12,0,0,0,0-6.46,6.12,6.12,0,0,0-2-2.45,5.44,5.44,0,0,0-3.34-1H90.66V21.62Z"></path><path id="Path_26" data-name="Path 26" class="cls-2" d="M114.53,34V6.91h19.33V8.27H118.28v9.1h11.07v1.32H118.28v14h15.58V34Z"></path><path id="Path_27" data-name="Path 27" class="cls-2" d="M86.9,39.2H98.1a13.15,13.15,0,0,1,4.65.72,8.66,8.66,0,0,1,3.1,1.84,5.78,5.78,0,0,1,1.61,2.51,4.93,4.93,0,0,1,.08,2.77,5.8,5.8,0,0,1-1.48,2.56,8.1,8.1,0,0,1-3,1.92,8.47,8.47,0,0,1,3.69,2,7,7,0,0,1,2,3,7,7,0,0,1-1.24,6.59,8.78,8.78,0,0,1-3.16,2.37,11.66,11.66,0,0,1-4.84.93H86.9ZM98,51a6.54,6.54,0,0,0,3.33-.78,5.52,5.52,0,0,0,2-1.93,5.07,5.07,0,0,0,0-5.08,5.55,5.55,0,0,0-2-1.94A6.54,6.54,0,0,0,98,40.54H90.61V51.05ZM99.35,65a5.81,5.81,0,0,0,3.34-.93,5.89,5.89,0,0,0,2-2.35,7.18,7.18,0,0,0,0-6.08,6,6,0,0,0-2-2.35,5.66,5.66,0,0,0-3.35-.92H90.61V65Z"></path><path id="Path_28" data-name="Path 28" class="cls-2" d="M114.72,39.2h3.72V65H134v1.32H114.72Z"></path><path id="Path_29" data-name="Path 29" class="cls-2" d="M150.41,38.54a15.79,15.79,0,0,1,6.43,1.22,13.25,13.25,0,0,1,7.32,7.77,15.17,15.17,0,0,1,0,10.46,13.6,13.6,0,0,1-2.75,4.55,13.35,13.35,0,0,1-4.57,3.23,17.6,17.6,0,0,1-12.89,0,13.41,13.41,0,0,1-4.61-3.23A13.09,13.09,0,0,1,136.59,58a15.4,15.4,0,0,1,0-10.46A12.94,12.94,0,0,1,139.34,43,13.41,13.41,0,0,1,144,39.75,15.86,15.86,0,0,1,150.41,38.54Zm0,1.12a9.68,9.68,0,0,0-4.75,1.13,10.48,10.48,0,0,0-3.39,3,13,13,0,0,0-2,4.2,17.26,17.26,0,0,0,0,9.61,13,13,0,0,0,2,4.21,10.48,10.48,0,0,0,3.39,3,10.57,10.57,0,0,0,9.47,0,10.31,10.31,0,0,0,3.37-3,13.12,13.12,0,0,0,2.07-4.21,17.44,17.44,0,0,0,0-9.61,13.21,13.21,0,0,0-2-4.2,10.51,10.51,0,0,0-3.37-3A9.6,9.6,0,0,0,150.41,39.66Z"></path><path id="Path_30" data-name="Path 30" class="cls-2" d="M184.73,38.54a15.71,15.71,0,0,1,6.46,1.22,13.25,13.25,0,0,1,7.32,7.77,15.06,15.06,0,0,1,0,10.46,13.23,13.23,0,0,1-7.35,7.76A15.85,15.85,0,0,1,184.71,67a16,16,0,0,1-6.46-1.22,13.69,13.69,0,0,1-4.61-3.23A13.23,13.23,0,0,1,170.89,58a15.4,15.4,0,0,1,0-10.46A12.94,12.94,0,0,1,173.64,43a13.41,13.41,0,0,1,4.61-3.23A16,16,0,0,1,184.73,38.54Zm0,1.12A9.67,9.67,0,0,0,180,40.79a10.38,10.38,0,0,0-3.39,3,13,13,0,0,0-2,4.2,17.26,17.26,0,0,0,0,9.61,13.23,13.23,0,0,0,2,4.21,10.48,10.48,0,0,0,3.39,3,10,10,0,0,0,12.85-3,13.23,13.23,0,0,0,2-4.21,17.44,17.44,0,0,0,0-9.61,12.93,12.93,0,0,0-2-4.2,10.37,10.37,0,0,0-3.36-3,9.61,9.61,0,0,0-4.76-1.13Z"></path><path id="Path_31" data-name="Path 31" class="cls-2" d="M208.87,39.2l8.37,18.36,8.37-18.36h3.77V66.32h-3.72V42.07l-9.61,21L206.39,42V66.32h-1.32V39.2Z"></path></g></g></g></svg> 