<?xml version="1.0" encoding="UTF-8"?> <svg xmlns="http://www.w3.org/2000/svg" width="50" height="50" viewBox="0 0 50 50"><g id="YouTube" transform="translate(-971 -1502)"><circle id="Ellipse_41" data-name="Ellipse 41" cx="25" cy="25" r="25" transform="translate(971 1502)" fill="#ff8667"></circle><path id="Icon_metro-youtube" data-name="Icon metro-youtube" d="M9.293,1.928,7.707,5.075,6.12,1.928H4.1l2.86,4.983.017-.01v3.832H8.441V6.9l.017.01,2.86-4.983Zm4.284,2.935a.744.744,0,0,1,.734.734V8.532a.734.734,0,1,1-1.467,0V5.6a.744.744,0,0,1,.734-.734Zm0-1.467a2.208,2.208,0,0,0-2.2,2.2V8.532a2.2,2.2,0,1,0,4.4,0V5.6a2.208,2.208,0,0,0-2.2-2.2Zm6.6,0V9.173c-.64.534-1.467.856-1.467-1.046V3.4H17.246V8.425h0c.023,1.213.278,3.4,2.933,1.621v.687h1.467V3.4H20.181Zm2.2,14.675a.735.735,0,0,0-.734.734v.734h1.467V18.8a.735.735,0,0,0-.734-.734Zm-6.6.734v3.852c.5.5,1.467.55,1.467-.183V19.034C17.246,18.3,16.512,18.07,15.778,18.8Zm10.152-3.542a3.051,3.051,0,0,0-3-2.942c-1.6-.08-5.261-.12-8.477-.12s-7.138.04-8.738.12a3.051,3.051,0,0,0-3,2.942c-.1,1.722-.144,2.347-.144,3.208s.048,2.153.144,3.875a3.051,3.051,0,0,0,3,2.942c1.6.08,5.522.12,8.738.12s6.877-.04,8.477-.12a3.051,3.051,0,0,0,3-2.942q.12-2.153.12-3.875c0-1.148-.04-1.773-.12-3.208ZM6.973,23.94H5.506V16.6H4.038V15.135h4.4V16.6H6.973Zm5.87,0H11.376v-.687c-2.79,1.566-2.91.05-2.933-1.163h0V18.07H9.908v4.043c0,.887.827.8,1.467.267V18.07h1.467Zm5.87-1.488c0,1.534-1.571,1.981-2.935.789v.7H14.311v-8.8h1.467V17.52c1.467-1.467,2.935-.917,2.935.55Zm5.87-2.914v.734H21.648v1.467a.734.734,0,1,0,1.467,0v-.734h1.467v.734a2.2,2.2,0,0,1-4.4,0V18.8a2.2,2.2,0,0,1,4.4,0Z" transform="translate(982.198 1513.332)" fill="#fff8f8"></path></g></svg> 